<?xml version="1.0" standalone="no"?>
<!DOCTYPE svg PUBLIC "-//W3C//DTD SVG 20010904//EN"
 "http://www.w3.org/TR/2001/REC-SVG-20010904/DTD/svg10.dtd">
<svg version="1.0" xmlns="http://www.w3.org/2000/svg"
 width="1280.000000pt" height="1183.000000pt" viewBox="0 0 1280.000000 1183.000000"
 preserveAspectRatio="xMidYMid meet">
<metadata>
Created by potrace 1.15, written by Peter Selinger 2001-2017
</metadata>
<g transform="translate(0.000000,1183.000000) scale(0.100000,-0.100000)"
fill="#000000" stroke="none">
<path d="M10060 11814 c-96 -8 -422 -32 -725 -54 -302 -23 -791 -58 -1085 -80
-294 -22 -785 -58 -1090 -80 -305 -22 -796 -58 -1090 -80 -294 -22 -785 -58
-1090 -80 -305 -22 -796 -58 -1090 -80 -806 -59 -1428 -105 -2115 -155 -341
-25 -862 -63 -1157 -85 -296 -22 -556 -40 -578 -40 l-40 0 0 -152 c0 -85 22
-450 50 -833 49 -660 87 -1176 170 -2310 22 -300 58 -791 80 -1092 50 -673
118 -1602 170 -2313 22 -294 58 -785 80 -1090 118 -1602 138 -1872 143 -1877
4 -3 293 16 644 42 351 26 682 49 736 52 l97 6 0 -757 0 -756 5315 0 5315 0 0
4845 0 4845 -1029 0 -1028 0 -7 98 c-9 130 -79 1090 -116 1586 -17 220 -30
412 -30 428 l0 28 -177 -1 c-98 -1 -257 -8 -353 -15z"/>
</g>
</svg>
