<?xml version="1.0" standalone="no"?>
<!DOCTYPE svg PUBLIC "-//W3C//DTD SVG 20010904//EN"
 "http://www.w3.org/TR/2001/REC-SVG-20010904/DTD/svg10.dtd">
<svg version="1.0" xmlns="http://www.w3.org/2000/svg"
 width="1280.000000pt" height="876.000000pt" viewBox="0 0 1280.000000 876.000000"
 preserveAspectRatio="xMidYMid meet">
<metadata>
Created by potrace 1.15, written by Peter Selinger 2001-2017
</metadata>
<g transform="translate(0.000000,876.000000) scale(0.100000,-0.100000)"
fill="#000000" stroke="none">
<path d="M4587 8749 c-580 -19 -1633 -95 -2210 -159 -1300 -145 -2036 -378
-2276 -721 -73 -104 -94 -164 -93 -274 1 -49 0 -214 -1 -365 -9 -1258 7 -1730
79 -2380 181 -1634 644 -2818 1414 -3613 292 -302 595 -525 971 -717 559 -284
1082 -434 1754 -502 196 -19 802 -16 1035 5 484 46 1020 136 1460 246 455 113
795 313 1165 685 288 289 555 640 870 1142 59 93 109 172 113 175 4 4 43 0 87
-7 113 -21 532 -30 681 -15 1163 115 2282 844 2824 1838 157 288 259 586 312
915 17 106 21 180 22 363 1 285 -12 399 -66 555 -241 696 -799 1164 -1488
1249 -457 57 -931 -83 -1313 -388 l-79 -63 6 119 c3 65 9 226 12 358 5 194 9
246 22 270 12 21 17 56 17 115 0 108 -23 158 -114 253 -160 167 -479 323
-1044 512 -432 144 -1164 272 -1992 350 -613 57 -1452 78 -2168 54z m5243
-1254 c-6 -15 -13 -26 -15 -23 -3 2 1 19 8 37 6 17 13 28 15 23 1 -5 -2 -22
-8 -37z m1470 -1096 c180 -22 313 -83 420 -190 531 -537 498 -1340 -87 -2112
-108 -142 -400 -431 -551 -545 -424 -322 -866 -511 -1357 -583 -95 -14 -498
-19 -511 -7 -4 4 10 52 31 105 20 54 59 154 85 223 182 479 370 1175 435 1614
9 60 24 189 34 285 18 172 19 178 64 273 165 352 419 623 737 787 195 100 364
147 585 159 17 1 69 -3 115 -9z m-9316 -3855 c3 -8 2 -12 -4 -9 -6 3 -10 10
-10 16 0 14 7 11 14 -7z"/>
</g>
</svg>
