<?xml version="1.0" standalone="no"?>
<!DOCTYPE svg PUBLIC "-//W3C//DTD SVG 20010904//EN"
 "http://www.w3.org/TR/2001/REC-SVG-20010904/DTD/svg10.dtd">
<svg version="1.0" xmlns="http://www.w3.org/2000/svg"
 width="1071.000000pt" height="1280.000000pt" viewBox="0 0 1071.000000 1280.000000"
 preserveAspectRatio="xMidYMid meet">
<metadata>
Created by potrace 1.15, written by Peter Selinger 2001-2017
</metadata>
<g transform="translate(0.000000,1280.000000) scale(0.100000,-0.100000)"
fill="#000000" stroke="none">
<path d="M5930 12784 c-148 -19 -309 -57 -501 -120 l-166 -54 -18 -45 c-18
-47 -59 -86 -109 -102 -24 -7 -31 -18 -42 -61 -25 -95 -52 -133 -203 -282
-163 -159 -201 -217 -209 -315 -4 -52 -4 -52 43 -91 48 -40 75 -80 75 -110 0
-9 -49 -119 -109 -243 -60 -124 -123 -269 -141 -321 l-31 -95 28 -22 c38 -31
85 -38 158 -24 93 17 95 16 95 -23 0 -103 71 -184 196 -222 43 -13 47 -12 63
7 9 11 51 30 93 43 l77 24 3 -81 c3 -82 3 -82 31 -85 24 -3 38 6 81 52 28 31
57 56 63 56 6 0 15 -12 21 -28 5 -15 22 -42 37 -60 85 -101 235 -96 427 14 42
24 85 44 95 44 10 0 41 -14 68 -30 62 -37 132 -40 228 -10 84 26 152 72 275
186 106 99 183 154 249 176 33 11 65 39 143 124 56 60 110 126 121 146 29 56
24 113 -15 162 -14 17 -18 16 -95 -25 -44 -23 -149 -96 -233 -161 -144 -112
-251 -178 -265 -165 -3 4 15 49 41 101 31 64 46 107 46 133 l0 40 -73 6 c-86
8 -135 -4 -167 -38 -23 -24 -47 -35 -35 -15 9 14 -8 41 -57 89 l-43 43 57 29
c62 31 78 51 78 98 0 34 -38 84 -81 106 -55 29 -79 23 -314 -79 -59 -25 -125
-34 -125 -18 0 5 9 17 21 28 11 10 36 40 55 66 l35 47 -57 68 c-32 37 -63 72
-71 76 -7 4 -13 12 -13 17 0 15 153 84 285 130 166 58 258 105 325 166 56 53
102 129 113 192 8 37 7 38 -83 17 -81 -19 -149 -46 -315 -125 -174 -83 -293
-122 -374 -124 l-65 -1 -23 40 c-26 46 -29 94 -8 134 37 73 261 226 460 315
165 73 204 104 225 176 7 24 5 29 -13 34 -38 10 -248 4 -357 -10z"/>
<path d="M6885 12760 c-17 -28 36 -41 77 -19 17 9 18 13 7 20 -19 12 -76 11
-84 -1z"/>
<path d="M7118 12752 c-52 -26 -43 -49 32 -82 84 -38 122 -39 150 -3 11 14 19
31 17 37 -4 16 -86 53 -129 59 -23 4 -48 -1 -70 -11z"/>
<path d="M7485 12714 c-10 -26 -24 -67 -31 -91 l-13 -43 48 0 c64 0 72 -11 64
-93 -9 -99 22 -121 107 -77 34 17 90 27 90 16 0 -2 -7 -20 -15 -39 -8 -20 -15
-48 -15 -62 0 -24 2 -25 61 -25 78 0 99 -11 99 -53 l0 -33 83 -1 c71 0 97 -6
197 -44 96 -36 126 -43 185 -43 95 0 111 11 125 81 12 56 9 174 -6 222 -5 18
16 5 97 -60 57 -46 154 -122 216 -169 l112 -84 -30 -18 c-39 -24 -63 -80 -54
-127 3 -20 22 -74 41 -121 43 -105 53 -170 31 -203 -15 -24 -15 -26 24 -57 63
-51 79 -84 79 -167 l0 -73 34 0 c19 0 71 14 116 30 45 17 99 30 121 30 33 0
39 -3 39 -21 0 -12 14 -46 31 -76 l31 -54 -25 -27 c-38 -41 -63 -99 -81 -191
-9 -46 -15 -86 -13 -88 3 -2 16 2 31 8 29 14 54 50 102 149 31 65 72 110 100
110 8 0 14 -6 14 -13 0 -7 14 -23 30 -35 33 -25 35 -37 19 -97 -8 -29 -35 -64
-95 -125 -85 -87 -114 -136 -114 -190 0 -34 9 -36 49 -15 33 17 65 53 103 118
28 48 56 71 99 81 26 6 26 4 32 -57 9 -91 33 -151 75 -189 l37 -32 3 30 c5 42
-17 233 -39 344 -49 242 -132 492 -290 877 -64 153 -74 173 -101 184 -47 19
-123 83 -169 142 -52 66 -70 73 -124 47 -23 -11 -49 -20 -57 -20 -9 0 -33 22
-52 49 -101 138 -297 273 -450 310 -68 17 -184 15 -236 -3 -45 -15 -60 -14
-60 8 0 19 -51 63 -95 82 -30 12 -90 19 -245 25 -113 4 -226 11 -251 14 l-46
6 -18 -47z"/>
<path d="M4771 12429 c-31 -66 -113 -148 -193 -193 -85 -47 -244 -98 -395
-127 l-123 -24 0 -30 c-1 -39 -13 -54 -82 -98 -31 -20 -64 -46 -72 -59 -8 -13
-29 -72 -46 -133 -37 -126 -56 -167 -135 -285 -92 -136 -147 -275 -285 -722
-103 -331 -120 -400 -120 -504 0 -72 -1 -74 -25 -74 -16 0 -32 -11 -47 -30
-12 -16 -27 -30 -33 -30 -8 0 -14 -38 -18 -112 -4 -62 -18 -194 -32 -292 -14
-99 -25 -209 -25 -245 l0 -66 43 -27 c65 -41 72 -55 86 -153 7 -53 34 -155 66
-250 57 -169 79 -262 73 -310 -2 -24 -9 -30 -35 -36 -18 -3 -58 -17 -89 -29
l-57 -23 6 -206 c8 -325 51 -561 187 -1036 137 -476 190 -698 225 -929 l15
-100 65 -59 c96 -87 171 -204 225 -355 22 -61 22 -65 7 -92 -22 -36 -21 -60 4
-156 27 -103 66 -218 151 -444 112 -295 145 -398 214 -679 85 -347 141 -489
245 -628 21 -29 39 -54 39 -56 0 -2 -39 -7 -87 -10 -49 -3 -178 -16 -288 -28
-210 -22 -431 -22 -487 0 -25 10 -28 8 -28 -12 -1 -12 -7 -33 -15 -47 -19 -33
-19 -75 1 -94 15 -15 28 -15 85 0 19 5 49 -20 49 -41 0 -7 -17 -15 -43 -19
-24 -4 -90 -29 -148 -56 -57 -28 -126 -53 -152 -56 -48 -7 -49 -7 -43 -37 10
-49 33 -77 64 -77 16 0 62 23 111 55 46 31 85 54 87 52 1 -1 -6 -83 -17 -182
-18 -164 -51 -319 -70 -330 -10 -7 -74 21 -149 66 -132 78 -236 185 -287 296
-27 58 -43 61 -69 11 -26 -50 -9 -85 93 -200 66 -75 52 -108 -40 -93 -62 11
-95 30 -164 98 -49 48 -65 59 -75 49 -20 -20 -72 -14 -149 19 -59 25 -76 29
-96 20 -21 -10 -52 -57 -42 -64 10 -7 321 -159 384 -187 126 -57 318 -132 437
-171 87 -28 124 -45 143 -66 36 -39 55 -78 52 -103 -2 -19 9 -26 83 -50 47
-15 158 -64 247 -108 90 -44 189 -88 221 -97 l59 -18 -9 -54 c-10 -66 -26 -99
-65 -134 -45 -43 -82 -56 -198 -74 -61 -10 -134 -23 -162 -30 -53 -12 -63 -9
-42 12 9 9 8 18 -4 35 -37 52 -55 66 -107 83 -30 10 -141 48 -245 85 -381 136
-556 174 -777 167 -115 -3 -142 -7 -199 -29 -84 -34 -178 -53 -354 -73 -178
-20 -255 -38 -331 -75 -59 -29 -63 -29 -97 -15 -20 8 -55 15 -77 15 -33 0 -40
-3 -40 -20 0 -22 -30 -44 -75 -55 -40 -9 -55 -23 -55 -51 0 -72 260 -68 418 6
56 26 75 30 152 30 104 0 234 13 465 45 94 13 244 29 335 35 l165 12 200 -95
c475 -224 658 -324 839 -459 105 -77 234 -198 293 -274 l33 -41 -23 -44 c-20
-38 -36 -50 -108 -87 -46 -23 -92 -52 -101 -63 -16 -18 -19 -19 -24 -5 -8 21
-22 20 -69 -4 -22 -12 -49 -18 -60 -16 -18 5 -24 -6 -49 -87 -30 -95 -72 -186
-103 -223 -37 -44 -197 -58 -332 -29 -39 8 -152 44 -251 80 -263 96 -312 107
-460 108 -127 0 -172 -6 -440 -62 -80 -16 -188 -35 -240 -41 -155 -19 -140 -8
-140 -99 0 -90 3 -93 79 -84 44 5 50 3 61 -17 7 -13 8 -26 3 -31 -13 -13 -186
-56 -277 -68 -93 -13 -266 -14 -318 -2 -43 10 -43 10 -24 -27 40 -76 112 -114
233 -120 104 -5 114 -19 37 -53 -36 -15 -44 -23 -44 -44 0 -33 34 -47 112 -48
79 -1 169 45 245 124 33 34 66 59 78 59 39 0 141 59 235 135 103 84 172 121
241 131 l45 6 12 -53 c6 -30 19 -99 27 -154 43 -270 85 -364 186 -416 59 -30
79 -26 79 15 0 84 -95 369 -180 537 -25 49 -29 64 -18 71 7 5 63 7 123 5 101
-4 123 -8 280 -60 218 -72 282 -87 380 -87 91 0 157 15 231 53 l51 26 11 -37
c6 -20 16 -68 22 -107 21 -144 57 -195 136 -195 l44 0 0 59 c0 73 -12 108 -67
198 -62 101 -63 120 -14 235 22 53 44 121 47 153 6 46 10 55 23 50 38 -15 69
-15 121 0 30 9 80 23 110 31 l55 16 52 106 c57 118 76 181 71 233 -3 30 -12
40 -82 86 -98 64 -121 86 -112 108 5 15 14 17 51 11 61 -8 138 -45 227 -110
132 -96 210 -124 301 -107 l46 8 15 -46 c8 -25 27 -104 42 -176 24 -115 31
-133 59 -160 72 -68 206 -87 458 -64 192 17 379 16 431 -3 l39 -14 -64 -51
c-76 -61 -221 -209 -305 -313 -47 -58 -201 -262 -210 -278 -1 -2 -57 6 -125
18 -169 28 -250 55 -300 99 -38 34 -40 38 -29 66 41 106 53 325 25 459 -8 40
-28 111 -44 158 -16 47 -32 108 -36 136 -8 61 -30 85 -76 80 -41 -4 -66 -44
-104 -162 -53 -164 -55 -394 -9 -735 l17 -124 101 9 c56 4 132 8 169 9 65 0
70 -2 98 -33 16 -18 29 -41 29 -52 0 -19 7 -20 128 -20 225 0 433 37 602 106
47 19 91 36 99 37 9 1 20 -18 32 -56 23 -77 33 -87 85 -87 51 0 56 13 23 66
-11 19 -18 38 -14 44 4 6 73 10 180 10 107 0 201 5 247 14 208 40 334 128 388
273 l20 55 -31 56 c-129 231 -143 275 -89 286 17 3 52 25 78 49 60 56 81 67
130 67 37 0 44 -5 90 -62 27 -35 95 -131 150 -215 60 -88 125 -172 156 -201
55 -50 144 -108 152 -99 10 10 -51 142 -99 215 -27 43 -93 133 -146 202 -151
195 -208 289 -244 405 -28 93 -29 90 22 126 83 59 174 143 203 188 33 53 37
109 10 134 -17 15 -24 10 -120 -92 -80 -86 -115 -116 -168 -143 l-67 -34 -29
-84 c-33 -98 -39 -187 -15 -224 15 -22 15 -25 -1 -40 -48 -43 -108 -57 -285
-66 -151 -8 -183 -13 -261 -40 -50 -16 -100 -30 -113 -30 -13 0 -50 14 -83 30
-33 17 -66 30 -75 30 -9 0 -42 -13 -75 -30 -57 -29 -64 -30 -192 -30 -218 0
-493 30 -548 60 -43 23 -20 75 48 112 26 14 32 23 32 49 0 44 -107 147 -280
271 -74 53 -158 120 -187 150 -66 68 -119 156 -134 224 -11 50 -16 56 -63 83
-28 16 -77 50 -108 76 -49 42 -64 63 -111 164 -195 414 -325 858 -372 1273 -6
54 -5 58 17 62 70 15 721 60 1078 76 129 5 278 12 330 15 52 3 289 10 525 15
957 23 1583 40 1642 46 l61 5 8 -78 c26 -247 -6 -582 -78 -803 -43 -136 -127
-298 -189 -365 -15 -17 -16 -27 -8 -63 12 -57 -6 -133 -70 -293 -27 -68 -52
-138 -56 -156 -6 -32 -6 -32 24 -23 78 22 118 81 161 237 32 117 64 198 82
209 5 3 15 1 23 -6 10 -9 25 -7 61 5 26 9 53 14 59 11 6 -2 44 31 84 74 85 94
211 200 421 358 347 259 478 383 607 577 84 126 127 171 193 205 22 11 40 26
40 33 0 33 86 272 130 362 27 55 75 132 107 170 66 80 59 85 88 -75 26 -149
80 -355 123 -475 37 -103 115 -272 146 -317 12 -17 11 -31 -9 -106 -58 -213
-108 -349 -409 -1090 -100 -246 -173 -452 -232 -652 -15 -51 -27 -65 -145
-175 -180 -167 -224 -201 -395 -305 -218 -134 -280 -184 -301 -239 -21 -59
-51 -91 -127 -137 -130 -79 -185 -143 -186 -217 l0 -28 80 42 c127 68 230 152
483 393 129 123 259 242 289 264 56 42 159 105 163 100 2 -2 -1 -26 -5 -54
-10 -60 -46 -156 -103 -269 -57 -115 -77 -179 -77 -252 0 -60 2 -64 27 -74 31
-12 141 -14 208 -4 40 7 48 12 71 51 45 77 64 142 89 307 33 210 57 280 182
527 159 314 173 354 183 519 11 179 20 206 223 651 41 91 89 205 106 254 39
111 65 256 57 317 -4 26 -7 114 -7 196 0 82 -3 154 -7 160 -4 5 -21 18 -39 27
-37 19 -55 46 -43 65 6 11 25 4 82 -29 71 -40 122 -77 390 -282 137 -105 257
-178 358 -217 126 -49 120 -50 158 13 26 41 33 63 30 93 -3 33 -7 38 -30 41
-30 4 -35 -8 -40 -83 -4 -48 -26 -54 -46 -13 -10 21 -10 37 -1 72 6 25 9 52 6
60 -3 8 -57 39 -120 69 -92 45 -123 66 -164 111 -28 31 -54 69 -58 85 -5 26
-14 32 -58 45 -69 20 -124 57 -232 155 -49 44 -120 97 -157 116 -67 35 -67 36
-89 103 -21 66 -22 67 -73 85 -28 10 -66 21 -85 24 -29 5 -36 12 -57 60 -54
121 -68 197 -68 358 0 160 6 208 74 538 57 277 74 430 67 619 l-6 157 127 118
c328 305 396 380 465 518 35 71 77 219 77 274 0 21 6 32 20 36 11 4 38 32 59
64 38 57 38 59 44 182 4 81 17 173 36 264 86 393 84 383 85 535 1 245 -43 420
-215 852 -44 112 -81 207 -82 212 -1 4 6 10 16 11 29 5 46 24 57 64 18 64 14
70 -47 97 -123 54 -130 61 -113 122 5 20 19 77 31 126 11 50 27 102 35 118 13
25 13 28 -1 28 -9 0 -26 -5 -37 -11 -27 -14 -41 3 -65 76 -13 40 -18 112 -22
355 -6 303 -6 305 -32 361 -24 52 -80 109 -106 109 -17 0 -23 -26 -23 -95 0
-35 -4 -75 -10 -89 -13 -36 -58 -34 -128 6 l-55 31 6 -24 c3 -13 11 -82 18
-154 12 -135 32 -207 77 -279 23 -38 24 -40 6 -53 -10 -7 -25 -11 -34 -7 -8 3
-27 10 -42 14 -26 8 -28 6 -28 -19 0 -16 7 -48 15 -71 8 -23 15 -67 15 -96 0
-53 0 -54 -30 -54 -44 0 -87 -25 -106 -62 -15 -29 -15 -37 0 -107 9 -42 23
-121 31 -176 32 -200 58 -279 113 -337 l26 -28 -28 0 c-39 0 -80 -24 -95 -56
-6 -15 -19 -72 -27 -127 -8 -55 -21 -112 -29 -128 -14 -25 -51 -59 -66 -59 -8
0 -27 61 -44 145 -18 91 -29 118 -56 144 -36 34 -69 27 -119 -24 -24 -25 -47
-45 -51 -45 -4 0 -12 13 -17 30 -7 20 -19 31 -39 36 -58 12 -63 16 -71 47 -8
28 -6 33 15 41 17 6 41 2 82 -13 90 -33 108 -29 131 25 26 59 34 113 26 159
-6 30 -11 35 -24 29 -80 -34 -102 -37 -148 -19 -29 11 -52 28 -64 47 -19 31
-35 96 -26 105 2 3 40 -14 83 -38 59 -32 85 -41 105 -36 33 9 58 60 58 122 0
43 -2 47 -33 60 -18 7 -63 21 -100 29 -37 9 -85 25 -107 36 -57 29 -81 80 -37
80 12 0 85 16 162 36 77 20 162 41 189 47 l49 10 -8 71 c-10 95 -10 116 -1
149 l8 27 -58 0 c-44 0 -70 6 -103 25 -23 14 -45 25 -47 25 -2 0 -4 -45 -4
-100 0 -99 -6 -114 -30 -85 -16 19 -53 19 -91 -1 -17 -8 -49 -18 -72 -22 l-42
-8 -6 -76 c-4 -41 -10 -81 -13 -87 -12 -18 -41 -12 -65 13 -29 31 -41 82 -40
178 1 87 -3 98 -35 98 -46 0 -52 -23 -26 -106 22 -69 23 -76 7 -91 -18 -18
-15 -20 -32 32 -2 8 -13 15 -23 15 -17 0 -20 -9 -24 -59 -3 -44 -14 -79 -43
-133 -45 -86 -59 -142 -38 -159 7 -7 39 -53 69 -103 83 -135 100 -150 221
-197 29 -11 38 -49 25 -101 -7 -26 -7 -48 -1 -59 5 -10 58 -45 117 -79 104
-59 205 -141 184 -148 -6 -2 -41 12 -79 31 -84 42 -119 50 -157 34 l-29 -13
34 -39 c41 -46 81 -65 219 -100 115 -30 165 -52 194 -84 16 -18 17 -23 5 -37
-8 -10 -34 -26 -59 -37 -49 -22 -69 -42 -70 -70 0 -26 -28 -32 -52 -11 -18 17
-20 27 -15 81 3 39 0 68 -7 77 -14 18 -59 36 -92 36 -20 0 -24 -5 -24 -32 0
-45 22 -135 72 -291 37 -118 41 -143 42 -237 0 -93 -3 -113 -28 -173 -27 -66
-27 -69 -9 -83 29 -22 60 -27 126 -19 127 15 122 16 121 -35 0 -25 -8 -135
-18 -244 -12 -148 -19 -388 -26 -930 -9 -743 -15 -871 -51 -1146 -43 -335
-114 -519 -249 -648 -49 -47 -50 -49 -50 -107 0 -132 -57 -258 -190 -422 -113
-141 -165 -222 -186 -288 -14 -44 -22 -54 -58 -71 -40 -19 -65 -47 -173 -193
-64 -86 -93 -106 -153 -106 -27 0 -51 3 -55 7 -4 4 8 25 26 46 76 88 158 280
204 477 39 166 57 309 65 535 7 190 12 230 39 340 35 141 38 188 15 235 -12
27 -71 71 -81 61 -5 -5 -25 -163 -64 -505 -70 -625 -111 -836 -211 -1079 -29
-69 -31 -72 -63 -72 -23 0 -46 -10 -75 -35 -23 -19 -50 -35 -59 -35 -12 0 -31
-27 -59 -83 -28 -57 -77 -126 -149 -213 -145 -173 -163 -198 -190 -263 l-23
-56 0 55 c0 115 33 336 100 670 51 251 80 418 80 457 0 15 -15 32 -47 54 -27
18 -53 39 -59 47 -9 13 -17 13 -60 -1 -157 -52 -329 -59 -1055 -45 -327 6
-348 8 -380 28 -19 11 -78 34 -132 51 -92 29 -167 74 -167 100 0 5 29 9 64 9
110 0 613 73 959 138 26 5 47 6 47 1 0 -5 -12 -22 -27 -39 -19 -21 -59 -42
-123 -66 -84 -31 -150 -73 -150 -95 0 -16 93 -21 148 -9 88 20 128 64 198 222
70 160 110 208 171 208 43 0 92 -30 148 -90 65 -69 118 -77 164 -25 39 45 40
83 5 159 -31 68 -41 130 -25 150 7 8 42 22 79 32 104 27 141 49 163 97 26 57
24 82 -8 107 -40 31 -109 24 -206 -22 l-75 -36 -19 20 c-33 37 -101 60 -195
66 l-87 5 -19 35 c-29 57 -125 104 -222 110 -71 4 -78 3 -106 -22 l-29 -26 25
-20 c14 -11 29 -20 34 -20 5 0 42 -16 82 -35 77 -37 104 -68 104 -119 l0 -25
-37 21 c-21 12 -65 41 -98 64 -85 60 -152 92 -210 99 l-50 7 3 55 c5 75 -10
103 -89 174 -38 34 -69 65 -69 69 0 12 89 47 138 54 60 9 161 -9 264 -48 l88
-33 24 28 c42 49 59 200 27 232 -5 5 -38 13 -73 16 -60 6 -63 7 -66 35 -3 26
-6 28 -34 22 -17 -3 -70 -23 -117 -43 -62 -27 -104 -38 -152 -41 l-65 -4 -28
-64 c-39 -88 -84 -144 -144 -177 -64 -35 -82 -35 -82 1 0 82 -43 149 -151 232
-43 33 -81 64 -83 69 -3 4 13 100 35 212 103 523 113 751 44 974 l-23 76 28
54 c62 117 51 199 -57 434 -41 90 -80 190 -86 223 -9 46 -16 60 -32 63 -11 2
-58 10 -106 19 -123 22 -240 58 -449 138 -536 203 -620 227 -815 235 -95 4
-149 1 -200 -10 -69 -15 -70 -15 -88 6 -73 89 -81 194 -29 367 41 137 47 180
32 224 -22 67 -59 40 -90 -64 -19 -65 -39 -90 -69 -90 -19 0 -33 83 -28 155 3
39 17 106 30 150 66 218 78 264 86 320 12 92 4 144 -24 151 -35 9 -65 -13 -86
-62 -11 -24 -31 -51 -44 -60 -29 -19 -68 -10 -61 14 15 52 38 193 65 397 17
127 35 255 41 284 14 74 14 73 -22 51 -40 -24 -74 -26 -82 -4 -3 9 -6 51 -6
95 l0 79 -29 0 c-20 0 -37 -9 -55 -31 -14 -17 -26 -35 -26 -40 0 -21 -42 -49
-73 -49 l-34 0 63 123 c81 156 108 243 101 318 l-6 55 45 45 c25 24 110 130
189 234 78 105 154 201 169 214 32 30 34 73 9 179 l-17 73 53 49 c51 47 53 51
46 87 -12 68 -30 75 -122 46 -40 -13 -59 -14 -71 -6 -28 17 -25 38 13 83 43
51 50 78 35 125 -7 20 -10 37 -8 39 205 129 291 257 249 369 -9 22 -7 25 18
30 15 3 49 19 74 34 43 26 46 31 47 71 0 82 29 122 142 196 71 48 96 77 108
132 14 62 5 79 -48 92 -26 6 -54 13 -62 16 -11 4 -22 -10 -39 -45z"/>
<path d="M7167 12245 c-32 -13 -122 -60 -200 -106 -78 -45 -155 -89 -170 -98
-20 -12 -27 -21 -23 -36 3 -11 6 -67 6 -125 0 -58 4 -111 9 -118 6 -10 22 -7
72 16 35 17 103 48 152 71 113 52 216 119 271 176 44 46 102 142 93 152 -16
16 -81 2 -124 -26 -44 -30 -83 -40 -83 -23 0 4 18 26 40 47 41 40 49 65 27 83
-9 8 -28 4 -70 -13z"/>
<path d="M7842 12095 c-35 -15 -95 -76 -185 -185 -64 -78 -126 -118 -193 -126
-44 -6 -51 -10 -66 -43 -10 -20 -45 -58 -79 -85 -59 -47 -89 -92 -89 -136 0
-37 69 -18 174 49 40 25 84 44 111 48 50 6 52 3 29 -52 -20 -50 -13 -65 33
-65 32 0 44 7 89 55 51 54 86 75 125 75 31 0 22 -23 -26 -70 -59 -58 -60 -85
-3 -93 52 -7 83 -39 99 -103 7 -26 16 -43 23 -40 254 109 307 140 340 199 18
32 19 39 6 47 -37 24 -64 12 -132 -62 -55 -60 -69 -70 -78 -58 -20 30 -9 53
60 119 53 50 70 74 70 94 0 22 -4 27 -25 27 -39 0 -40 24 -6 85 17 30 31 57
31 60 0 3 -20 14 -44 25 -36 15 -45 24 -48 47 -4 37 -40 41 -109 12 -50 -22
-52 -22 -65 -4 -17 22 -11 47 22 96 26 39 30 69 12 87 -15 15 -35 15 -76 -3z"/>
<path d="M7373 11991 c-62 -32 -143 -80 -180 -107 -75 -53 -233 -206 -233
-225 0 -20 92 -5 154 27 32 16 95 58 139 94 45 35 107 76 137 91 30 14 65 37
78 51 35 38 56 128 30 128 -7 0 -63 -27 -125 -59z"/>
<path d="M8485 11543 c-33 -26 -136 -121 -230 -213 -231 -225 -277 -257 -478
-326 -55 -20 -126 -48 -156 -64 -57 -29 -141 -95 -141 -110 0 -13 68 -30 122
-30 66 0 119 20 260 100 125 71 181 94 254 106 30 4 45 13 57 33 8 14 57 67
107 116 51 50 106 114 123 143 24 44 46 64 113 107 45 30 90 65 100 80 15 23
15 29 2 63 -21 57 -57 55 -133 -5z"/>
<path d="M7465 11194 c-164 -35 -288 -111 -335 -208 -32 -68 -31 -70 58 -63
150 12 303 68 391 143 47 40 87 114 68 126 -12 8 -146 9 -182 2z"/>
<path d="M8911 11123 c-40 -151 -94 -523 -78 -539 14 -14 69 10 106 48 75 75
121 199 121 331 0 90 -15 132 -59 170 -48 40 -78 36 -90 -10z"/>
<path d="M6835 10845 c-5 -2 -35 -11 -65 -20 -30 -9 -70 -28 -89 -42 -32 -25
-75 -99 -65 -115 3 -4 23 -12 44 -18 98 -26 204 51 225 163 7 34 6 37 -16 36
-13 0 -28 -2 -34 -4z"/>
<path d="M9130 10809 c0 -6 -27 -72 -59 -148 -33 -75 -64 -154 -69 -176 -24
-98 -25 -93 8 -110 37 -19 62 -13 113 27 20 16 46 28 57 26 17 -3 14 -13 -32
-103 -28 -55 -57 -120 -64 -143 -13 -43 -13 -45 15 -73 16 -16 36 -29 43 -29
23 0 58 -39 58 -65 0 -23 -3 -25 -51 -25 l-52 0 5 -83 c3 -46 11 -94 18 -107
11 -20 17 -22 59 -17 26 3 64 14 84 23 39 19 35 20 118 -24 7 -3 35 61 49 113
14 57 12 208 -5 287 -7 37 -26 95 -41 130 -23 54 -27 75 -25 145 4 147 -37
235 -150 318 -63 46 -79 53 -79 34z"/>
<path d="M9633 10509 c-74 -21 -133 -128 -133 -239 0 -33 4 -60 10 -60 19 0
82 64 102 104 11 22 31 70 43 106 13 36 26 73 30 83 8 19 -2 20 -52 6z"/>
<path d="M9006 9884 c-24 -23 -21 -81 5 -94 11 -7 22 -10 23 -8 8 10 36 91 36
103 0 20 -44 19 -64 -1z"/>
<path d="M4256 8889 c-31 -24 -38 -41 -67 -148 -11 -42 -25 -81 -31 -88 -18
-22 6 -15 53 16 82 51 129 132 129 221 0 28 -49 27 -84 -1z"/>
<path d="M8048 8150 c-30 -42 -47 -44 -128 -19 -58 17 -88 20 -168 17 -119 -6
-188 -28 -419 -137 -208 -97 -342 -141 -435 -141 -19 0 -42 -11 -64 -30 -23
-20 -71 -41 -151 -66 -99 -31 -124 -43 -157 -75 l-38 -39 19 -32 c11 -20 41
-45 73 -63 50 -27 65 -30 168 -33 l113 -4 21 -41 c18 -36 20 -54 16 -153 l-4
-113 62 -15 c35 -9 89 -16 121 -16 l59 0 12 -46 c18 -65 106 -153 187 -184 89
-34 222 -39 295 -11 30 12 67 32 82 45 25 23 68 83 68 97 0 3 -35 9 -77 13
-147 12 -294 67 -370 138 -24 22 -76 118 -69 126 3 2 43 -19 90 -48 238 -143
381 -175 533 -118 44 16 53 24 64 56 34 106 91 171 119 137 6 -8 43 -26 81
-41 86 -32 100 -53 75 -114 -25 -64 -22 -75 32 -98 44 -19 118 -42 134 -42 15
0 60 104 84 197 13 52 29 104 34 114 6 10 10 21 10 24 0 12 -170 86 -316 136
-82 28 -185 69 -229 90 -81 39 -165 102 -154 114 4 3 50 10 103 15 96 9 235 1
343 -19 118 -23 276 -88 370 -153 39 -26 49 -29 117 -26 l75 3 -20 55 c-26 74
-100 180 -167 240 -107 96 -266 160 -394 160 l-63 0 -33 65 c-39 76 -66 85
-104 35z"/>
<path d="M6556 7273 c24 -168 129 -290 275 -320 l31 -6 -52 102 c-64 124 -116
193 -178 232 -65 41 -82 39 -76 -8z"/>
<path d="M6893 5920 c-12 -5 -24 -18 -28 -30 -11 -34 28 -66 144 -121 57 -28
117 -64 132 -80 l28 -30 -25 -36 c-30 -45 -30 -61 0 -147 17 -48 33 -74 53
-88 65 -44 252 -131 458 -213 121 -48 254 -105 296 -127 l77 -41 11 -56 c14
-76 20 -147 31 -411 6 -124 16 -252 24 -286 15 -72 47 -164 57 -164 8 0 43
111 66 206 13 55 17 143 20 439 l4 370 -118 118 -119 118 -109 37 c-168 57
-285 128 -498 301 -65 53 -164 131 -219 174 l-100 77 -82 -1 c-44 0 -91 -4
-103 -9z"/>
<path d="M8571 5173 l-21 -18 21 -33 c24 -36 75 -67 131 -77 l37 -7 -12 38
c-15 51 -76 114 -109 114 -14 0 -35 -8 -47 -17z"/>
<path d="M2090 3971 c0 -25 -42 -58 -92 -73 -57 -17 -112 -84 -188 -229 -36
-68 -84 -150 -107 -181 -24 -32 -43 -67 -43 -77 0 -11 20 -57 45 -104 53 -101
58 -142 18 -171 -15 -11 -91 -59 -171 -108 -236 -144 -308 -211 -369 -344 -31
-69 -42 -189 -24 -273 10 -49 9 -56 -14 -100 -14 -26 -55 -81 -90 -121 -35
-41 -80 -99 -101 -128 l-37 -52 0 -108 c1 -72 9 -148 27 -232 25 -126 46 -271
46 -322 0 -22 -8 -32 -43 -49 -23 -12 -95 -57 -159 -101 -64 -43 -129 -83
-145 -89 -20 -7 -39 -30 -68 -81 -22 -40 -100 -160 -174 -267 -234 -341 -295
-447 -365 -633 -20 -53 -36 -99 -36 -102 0 -13 122 -28 180 -22 167 15 290
128 458 421 76 132 67 123 97 95 29 -27 76 -32 171 -17 l51 8 14 -33 c7 -18
56 -89 108 -158 51 -69 98 -135 104 -147 12 -27 29 -28 110 -7 72 19 136 49
143 69 10 25 -48 132 -174 323 -66 101 -135 218 -153 260 -62 149 -69 290 -22
438 l16 51 73 -1 c40 -1 76 3 80 7 13 13 -24 172 -66 283 -63 165 -80 237 -80
341 0 105 -6 95 138 246 65 68 74 80 68 105 -14 60 -18 209 -7 264 27 129 115
248 219 296 46 21 71 26 132 26 41 0 85 -6 97 -12 20 -11 23 -9 41 32 43 97
154 142 415 167 124 12 127 13 127 36 0 14 13 38 29 54 28 28 33 29 123 29
115 0 129 7 99 48 -32 45 -77 80 -120 93 -52 15 -115 -4 -262 -80 -179 -93
-248 -99 -327 -26 l-37 33 2 102 c6 377 206 510 633 419 116 -25 154 -37 490
-149 245 -82 381 -120 428 -120 14 0 24 14 37 47 48 124 129 231 213 281 41
23 57 27 127 26 57 0 96 -7 135 -22 30 -12 56 -22 58 -22 1 0 -5 17 -13 38
-52 127 -238 174 -405 101 -57 -25 -110 -76 -110 -105 0 -48 -50 -181 -82
-218 l-33 -38 -63 37 c-138 81 -364 157 -752 255 -113 28 -251 65 -308 81 -56
16 -105 29 -107 29 -3 0 -5 -9 -5 -19z"/>
<path d="M3750 2322 c0 -35 96 -105 161 -116 56 -10 119 21 119 59 0 14 -73
35 -156 45 -49 6 -97 13 -106 16 -10 3 -18 1 -18 -4z"/>
<path d="M7824 2026 c-66 -10 -76 -15 -130 -65 -32 -29 -148 -113 -259 -186
-214 -141 -291 -208 -330 -285 -33 -66 -32 -80 5 -80 50 0 88 27 127 88 51 81
70 100 134 133 31 15 110 61 175 100 177 107 287 157 407 181 56 12 104 23
105 24 10 7 -22 76 -41 89 -25 17 -88 18 -193 1z"/>
<path d="M8365 1679 c-90 -94 -277 -181 -485 -224 -137 -29 -213 -37 -390 -44
l-175 -6 40 -42 c61 -62 123 -78 310 -77 200 0 325 29 500 117 141 70 261 166
308 246 l17 30 -32 9 c-18 6 -40 13 -48 16 -10 4 -27 -5 -45 -25z"/>
<path d="M2597 1658 c-94 -9 -202 -36 -458 -111 -197 -58 -313 -78 -456 -79
-112 -1 -113 -1 -113 -24 0 -14 -13 -35 -30 -51 -19 -17 -30 -36 -30 -53 0
-25 4 -28 46 -34 175 -24 280 0 719 164 191 71 302 94 430 87 180 -10 229 -29
730 -285 118 -60 212 -101 273 -118 51 -14 95 -24 98 -21 10 9 -44 84 -88 121
-57 50 -129 85 -302 150 -188 71 -258 108 -322 168 -42 40 -64 52 -111 63 -58
14 -249 36 -282 34 -9 -1 -56 -6 -104 -11z"/>
<path d="M3815 1461 c-2 -4 5 -26 16 -49 36 -72 162 -134 242 -118 36 7 77 32
77 47 0 24 -323 139 -335 120z"/>
<path d="M3534 1045 c-29 -8 -67 -20 -85 -27 l-33 -14 50 -23 c75 -36 131 -51
194 -51 46 0 62 4 83 24 31 29 45 72 28 89 -18 18 -177 19 -237 2z"/>
</g>
</svg>
