<?xml version="1.0" standalone="no"?>
<!DOCTYPE svg PUBLIC "-//W3C//DTD SVG 20010904//EN"
 "http://www.w3.org/TR/2001/REC-SVG-20010904/DTD/svg10.dtd">
<svg version="1.0" xmlns="http://www.w3.org/2000/svg"
 width="1280.000000pt" height="1258.000000pt" viewBox="0 0 1280.000000 1258.000000"
 preserveAspectRatio="xMidYMid meet">
<metadata>
Created by potrace 1.15, written by Peter Selinger 2001-2017
</metadata>
<g transform="translate(0.000000,1258.000000) scale(0.100000,-0.100000)"
fill="#000000" stroke="none">
<path d="M6165 12574 c-134 -28 -206 -63 -387 -187 -176 -120 -240 -158 -328
-192 -126 -49 -359 -104 -545 -127 -79 -10 -138 -7 -485 21 -417 35 -479 35
-710 5 -165 -22 -307 -54 -583 -133 -391 -112 -461 -127 -807 -166 -387 -44
-423 -49 -534 -81 -104 -30 -191 -67 -268 -117 -51 -32 -64 -36 -174 -46 -154
-14 -228 -33 -340 -87 -116 -55 -156 -99 -234 -258 -32 -67 -73 -137 -90 -158
-22 -26 -74 -59 -190 -118 -178 -91 -200 -110 -259 -228 -63 -126 -82 -200
-88 -347 -6 -138 8 -248 46 -356 12 -35 15 -61 10 -74 -22 -52 -89 -354 -105
-470 -25 -184 -25 -618 0 -850 29 -273 118 -655 217 -934 116 -325 128 -378
142 -614 17 -305 -11 -488 -153 -992 -158 -559 -174 -651 -173 -985 0 -221 17
-406 56 -631 11 -62 11 -93 0 -180 -18 -146 -18 -375 1 -479 8 -47 43 -166 76
-265 l61 -180 -7 -105 c-7 -118 -32 -222 -99 -420 -25 -74 -52 -171 -60 -215
-22 -114 -21 -269 3 -339 l19 -56 -29 -67 c-93 -221 -148 -427 -148 -560 0
-135 50 -291 131 -410 43 -64 168 -193 249 -258 151 -120 406 -273 615 -368
134 -61 344 -130 445 -148 194 -34 446 1 967 135 l133 34 110 -14 c61 -7 193
-18 293 -24 118 -7 221 -19 292 -35 293 -64 701 -90 1245 -82 572 9 964 46
1363 126 l138 28 422 -154 c721 -263 970 -335 1342 -389 149 -22 594 -25 790
-6 258 26 529 73 696 121 59 17 70 17 144 4 104 -19 358 -21 455 -4 243 43
453 159 645 357 85 87 94 93 163 113 162 49 343 143 499 260 45 34 154 129
243 211 89 82 268 231 398 331 406 313 563 454 625 560 38 64 57 151 57 255 0
108 -9 181 -55 439 -19 105 -39 226 -45 270 l-12 80 64 65 c71 72 103 128 118
209 13 72 12 231 -3 363 l-13 106 61 110 c98 176 127 259 132 377 6 121 -11
203 -66 319 l-38 82 18 74 c35 144 68 326 79 441 14 135 3 282 -31 412 -20 77
-22 111 -25 517 -3 458 3 561 46 810 100 573 116 705 107 893 -6 147 -22 202
-118 413 -103 228 -112 271 -106 484 5 169 23 334 87 800 43 311 55 498 41
642 -21 208 -59 307 -201 528 -44 68 -85 140 -90 160 -5 19 -18 78 -31 130
-37 162 -128 321 -245 430 -180 168 -496 290 -818 316 -84 7 -86 7 -106 42
l-21 35 -132 -6 c-73 -3 -149 -11 -171 -17 -38 -11 -40 -11 -80 28 -93 89
-190 141 -333 179 -98 26 -98 26 -628 33 -556 8 -595 10 -955 66 -91 14 -302
52 -470 85 -588 116 -977 180 -1195 195 -80 5 -116 13 -180 40 -101 41 -363
128 -466 154 -153 39 -340 59 -414 44z"/>
</g>
</svg>
